# AST/ASF file generated using VICON BodyLanguage
# -----------------------------------------------
:version 1.10
:name VICON
:units
  mass 1.0
  length 0.45
  angle deg
:documentation
   .ast/.asf automatically generated from VICON data using
   VICON BodyBuilder and BodyLanguage model FoxedUp or BRILLIANT.MOD
:root
   order TX TY TZ RX RY RZ
   axis XYZ
   position 0 0 0  
   orientation 0 0 0 
:bonedata
  begin
     id 1 
     name lhipjoint
     direction 0.521689 -0.742065 0.420928 
     length 2.47002 
     axis 0 0 0  XYZ
  end
  begin
     id 2 
     name lfemur
     direction 0.34202 -0.939693 0  
     length 7.24654  
     axis 0 0 20  XYZ
    dof rx ry rz
    limits (-160.0 20.0)
           (-70.0 70.0)
           (-60.0 70.0)
  end
  begin
     id 3 
     name ltibia
     direction 0.34202 -0.939693 0   
     length 8.04849   
     axis 0 0 20   XYZ
    dof rx
    limits (-10.0 170.0)
  end
  begin
     id 4 
     name lfoot
     direction 0.0745411 -0.2048 0.975961   
     length 1.72367   
     axis -90 7.62852e-016 20   XYZ
    dof rx rz
    limits (-45.0 90.0)
           (-70.0 20.0)
  end
  begin
     id 5 
     name ltoes
     direction 1.53556e-011 -4.21901e-011 1   
     length 0.87311   
     axis -90 7.62852e-016 20   XYZ
    dof rx
    limits (-90.0 20.0)
  end
  begin
     id 6 
     name rhipjoint
     direction -0.52849 -0.738415 0.418857   
     length 2.48223  
     axis 0 0 0  XYZ 
  end
  begin
     id 7 
     name rfemur
     direction -0.34202 -0.939693 0   
     length 7.15571   
     axis 0 0 -20   XYZ
    dof rx ry rz
    limits (-160.0 20.0)
           (-70.0 70.0)
           (-70.0 60.0)
  end
  begin
     id 8 
     name rtibia
     direction -0.34202 -0.939693 0   
     length 7.81659   
     axis 0 0 -20   XYZ
    dof rx
    limits (-10.0 170.0)
 end
 begin
     id 9 
     name rfoot
     direction -0.0917348 -0.252039 0.963359   
     length 1.84382  
     axis -90 -7.62852e-016 -20   XYZ
    dof rx rz
    limits (-45.0 90.0)
           (-20.0 70.0)
  end
  begin
     id 10 
     name rtoes
     direction -1.53551e-011 -4.21879e-011 1   
     length 0.927771   
     axis -90 -7.62852e-016 -20   XYZ
    dof rx
    limits (-90.0 20.0)
  end
  begin
     id 11 
     name lowerback
     direction 0.00583058 0.999822 0.0179296   
     length 2.1429   
     axis 0 0 0   XYZ
    dof rx ry rz
    limits (-20.0 45.0)
           (-30.0 30.0)
           (-30.0 30.0)
  end
  begin
     id 12 
     name upperback
     direction -0.0137999 0.999752 -0.0175071   
     length 2.14252   
     axis 0 0 0   XYZ
    dof rx ry rz
    limits (-20.0 45.0)
           (-30.0 30.0)
           (-30.0 30.0)
  end
  begin
     id 13 
     name thorax
     direction -0.0158036 0.99955 -0.0254909   
     length 2.1383   
     axis 0 0 0   XYZ
    dof rx ry rz
    limits (-20.0 45.0)
           (-30.0 30.0)
           (-30.0 30.0)
  end
  begin
     id 14 
     name lowerneck
     direction -0.0101179 0.999403 -0.0330262   
     length 1.65808   
     axis 0 0 0   XYZ
    dof rx ry rz
    limits (-20.0 45.0)
           (-30.0 30.0)
           (-30.0 30.0)
  end
  begin
     id 15 
     name upperneck
     direction 0.0497734 0.995978 -0.074501   
     length 1.5897   
     axis 0 0 0   XYZ
    dof rx ry rz
    limits (-20.0 45.0)
           (-30.0 30.0)
           (-30.0 30.0)
  end
  begin
     id 16
     name head
     direction 0.0189524 0.999519 -0.0245438  
     length 1.74024  
     axis 0 0 0   XYZ
    dof rx ry rz
    limits (-20.0 45.0)
           (-30.0 30.0)
           (-30.0 30.0)
  end
  begin
     id 17 
     name lclavicle
     direction 0.945604 0.324422 0.0241537  
     length 3.59089  
     axis 0 0 0   XYZ
    dof ry rz
    limits (-20.0 10.0)
           (0.0 20.0)
  end
  begin
     id 18 
     name lhumerus
     direction 1 -4.48964e-011 -2.63524e-027   
     length 5.2391   
     axis 180 -30 -90   XYZ
    dof rx ry rz
    limits (-60.0 90.0)
           (-90.0 90.0)
           (-90.0 90.0)
  end
  begin
     id 19
     name lradius
     direction 1 -4.48969e-011 3.86978e-028   
     length 3.31467   
     axis 180 -30 -90   XYZ
    dof rx
    limits (-10.0 170.0)
  end
  begin
     id 20
     name lwrist
     direction 1 -4.48963e-011 7.20928e-028   
     length 1.65734   
     axis -5.52449e-016 90 90   XYZ
    dof ry
    limits (-180.0 0.0)
 end
  begin
     id 21 
     name lhand
     direction 1 -4.48964e-011 1.44186e-027   
     length 0.9659   
     axis -9.20027e-016 90 90   XYZ
    dof rx rz
    limits (-90.0 90.0)
           (-45.0 45.0)
  end
  begin
     id 22 
     name lfingers
     direction 1 -4.48965e-011 2.88371e-027   
     length 0.778733   
     axis -1.84005e-015 90 90   XYZ
    dof rx
    limits (0.0 90.0)
  end
  begin
     id 23
     name lthumb
     direction 0.707107 -6.34931e-011 0.707107   
     length 1.11811   
     axis -90 45 2.85299e-015   XYZ
    dof rx rz
    limits (-45.0 45.0)
           (-45.0 45.0)
  end
  begin
     id 24 
     name rclavicle
     direction -0.923762 0.370785 0.0958234   
     length 3.54196  
     axis 0 0 0   XYZ 
    dof ry rz
    limits (-10.0 20.0)
           (-20.0 0.0)
  end
  begin
     id 25 
     name rhumerus
     direction -1 -4.48966e-011 1.18702e-017  
     length 5.30252   
     axis 180 30 90   XYZ
    dof rx ry rz
    limits (-90.0 60.0)
           (-90.0 90.0)
           (-90.0 90.0)
  end
  begin
     id 26 
     name rradius
     direction -1 -4.48966e-011 4.46736e-027   
     length 3.67875   
     axis 180 30 90   XYZ
    dof rx
    limits (-10.0 170.0)
  end
  begin
     id 27 
     name rwrist
     direction -1 -4.48966e-011 7.20928e-028   
     length 1.83937   
     axis -5.52449e-016 -90 -90   XYZ
    dof ry
    limits (-180.0 0.0)
  end
  begin
     id 28
     name rhand
     direction -1 -4.48973e-011 1.44186e-027   
     length 0.594811   
     axis -9.20027e-016 -90 -90   XYZ
    dof rx rz
    limits (-90.0 90.0)
           (-45.0 45.0)
  end
  begin
     id 29
     name rfingers
     direction -1 -4.48963e-011 2.88371e-027   
     length 0.479552   
     axis -1.84005e-015 -90 -90   XYZ
    dof rx
    limits (0.0 90.0)
  end
  begin
     id 30
     name rthumb
     direction -0.707107 -6.34932e-011 0.707107   
     length 0.688544   
     axis -90 -45 -2.85299e-015   XYZ
    dof rx rz
    limits (-45.0 45.0)
           (-45.0 45.0)
  end
:hierarchy
  begin
    root lhipjoint rhipjoint lowerback
    lhipjoint lfemur
    lfemur ltibia
    ltibia lfoot
    lfoot ltoes
    rhipjoint rfemur
    rfemur rtibia
    rtibia rfoot
    rfoot rtoes
    lowerback upperback
    upperback thorax
    thorax lowerneck lclavicle rclavicle
    lowerneck upperneck
    upperneck head
    lclavicle lhumerus
    lhumerus lradius
    lradius lwrist
    lwrist lhand lthumb
    lhand lfingers
    rclavicle rhumerus
    rhumerus rradius
    rradius rwrist
    rwrist rhand rthumb
    rhand rfingers
  end

#!OML:ASF E:\acrobat2\Project_11_07_03\Capture day 1\Session 1\Acrobat.ASF
:FULLY-SPECIFIED
:DEGREES
325
root 11.8874 16.5495 17.7603 -146.385 -12.5569 -185.59
lowerback 21.1142 -0.468964 -1.55366
upperback 6.2149 -1.92448 -0.915291
thorax -5.0246 -1.3082 0.414678
lowerneck -3.96121 -4.48994 -1.93814
upperneck -16.1579 -6.44198 7.13749
head -4.3462 -3.97349 2.96399
rclavicle 6.95746e-016 -1.03368e-014
rhumerus 20.9023 16.402 -74.5616
rradius 63.7971
rwrist -21.8708
rhand -8.47978 -19.7092
rfingers 7.12502
rthumb 17.4472 -48.9463
lclavicle 6.95746e-016 -1.03368e-014
lhumerus 33.4911 -6.53841 50.3861
lradius 12.6253
lwrist -10.2849
lhand -1.01087 0.210504
lfingers 7.12502
lthumb 24.6218 28.6468
rfemur -71.0749 -14.0749 23.7881
rtibia 76.0468
rfoot -19.3419 -0.823798
rtoes -19.0105
lfemur 131.262 173.409 158.274
ltibia 53.0749
lfoot -36.4169 1.03292
ltoes 9.71482
326
root 11.9346 16.6262 17.8024 -147.016 -12.794 -185.512
lowerback 20.6769 -0.442105 -1.59966
upperback 5.99577 -1.84871 -1.01181
thorax -5.03792 -1.25114 0.31065
lowerneck -3.93607 -4.64445 -2.23117
upperneck -15.6036 -6.57065 7.42554
head -4.12192 -3.99295 3.08648
rclavicle -9.54166e-015 -1.78906e-015
rhumerus 18.7319 16.5051 -74.3593
rradius 64.8653
rwrist -21.2438
rhand -8.5653 -19.193
rfingers 7.12502
rthumb 17.3648 -48.4373
lclavicle -9.54166e-015 -1.78906e-015
lhumerus 32.0975 -4.42792 50.8641
lradius 13.0605
lwrist -9.25423
lhand -0.690673 0.881851
lfingers 7.12502
lthumb 24.9287 29.276
rfemur -68.9562 -14.2438 23.7354
rtibia 76.4971
rfoot -19.7027 -2.19278
rtoes -17.555
lfemur 132.338 172.556 158.469
ltibia 51.9448
lfoot -35.6525 0.560326
ltoes 10.9999
327
root 11.9829 16.6948 17.8423 -147.632 -13.0094 -185.453
lowerback 20.2143 -0.397667 -1.69205
upperback 5.74443 -1.75461 -1.10708
thorax -5.07001 -1.18297 0.230558
lowerneck -3.96553 -4.77739 -2.54187
upperneck -14.9544 -6.67453 7.66762
head -3.85721 -3.99289 3.18856
rclavicle -1.51076e-014 4.80065e-014
rhumerus 16.6329 16.4326 -73.9508
rradius 66.0498
rwrist -20.5288
rhand -8.90576 -18.6526
rfingers 7.12502
rthumb 17.0371 -47.9255
lclavicle -1.51076e-014 4.80065e-014
lhumerus 30.8305 -2.22034 51.198
lradius 13.5777
lwrist -8.25603
lhand -0.775198 1.48831
lfingers 7.12502
lthumb 24.8477 29.8937
rfemur -66.7787 -14.3406 23.6404
rtibia 76.9553
rfoot -19.7353 -3.28155
rtoes -15.902
lfemur 133.354 171.751 158.663
ltibia 50.9198
lfoot -34.955 0.193041
ltoes 12.213
328
root 12.0313 16.7557 17.8802 -148.223 -13.1985 -185.423
lowerback 19.7091 -0.330855 -1.8269
upperback 5.48152 -1.6371 -1.20403
thorax -5.08975 -1.10274 0.167378
lowerneck -4.10422 -4.90585 -2.84412
upperneck -14.1981 -6.77949 7.85824
head -3.53871 -3.98805 3.26141
rclavicle 9.54166e-015 -1.35174e-014
rhumerus 14.5771 16.1412 -73.3751
rradius 67.3917
rwrist -19.7519
rhand -9.3915 -18.1809
rfingers 7.12502
rthumb 16.5695 -47.4935
lclavicle 9.54166e-015 -1.35174e-014
lhumerus 29.7525 0.01712 51.3529
lradius 14.1637
lwrist -7.3162
lhand -1.19999 1.92576
lfingers 7.12502
lthumb 24.4405 30.3867
rfemur -64.5578 -14.3853 23.5121
rtibia 77.3517
rfoot -19.4129 -4.1287
rtoes -14.0763
lfemur 134.309 171.005 158.835
ltibia 49.9965
lfoot -34.3462 0.0487209
ltoes 13.0423
329
root 12.079 16.8103 17.9148 -148.827 -13.3934 -185.437
lowerback 19.2226 -0.252829 -1.98868
upperback 5.2203 -1.51216 -1.29731
thorax -5.11507 -1.01959 0.123298
lowerneck -4.37411 -5.04633 -3.15014
upperneck -13.3163 -6.90562 8.01037
head -3.1561 -3.988 3.31059
rclavicle -2.00773e-014 -1.2921e-014
rhumerus 12.6316 15.6215 -72.598
rradius 68.8329
rwrist -18.9982
rhand -9.95756 -17.8146
rfingers 7.12502
rthumb 16.0245 -47.1718
lclavicle -2.00773e-014 -1.2921e-014
lhumerus 28.8708 2.2253 51.3168
lradius 14.8276
lwrist -6.41291
lhand -1.89014 2.18099
lfingers 7.12502
lthumb 23.7788 30.7296
rfemur -62.2222 -14.4357 23.3544
rtibia 77.5868
rfoot -18.7643 -4.79902
rtoes -12.0943
lfemur 135.272 170.35 158.989
ltibia 49.1496
lfoot -33.8417 0.204007
ltoes 13.2393
